 <svg
                width="16"
                height="16"
                viewBox="0 0 16 16"
                fill="none"
                xmlns="http://www.w3.org/2000/svg"
              >
                <path
                  fill-rule="evenodd"
                  clip-rule="evenodd"
                  d="M14.1659 0.58942C14.4509 0.304506 14.9051 0.30283 15.201 0.588582C15.4884 0.876009 15.4884 1.34025 15.2018 1.62684L1.62573 15.2021C1.4908 15.3371 1.29637 15.4167 1.10696 15.4167C0.921744 15.4167 0.739042 15.3412 0.59154 15.2047C0.30324 14.9055 0.30324 14.4505 0.589026 14.1647L2.8267 11.9273H2.80407C1.68859 11.9273 0.876488 11.1396 0.725633 9.91616C0.557179 8.6927 0.590702 6.59775 0.725633 5.48323C0.88403 4.32682 1.73971 3.53157 2.80407 3.53157H4.25312L7.01878 1.26902C7.35485 0.984109 7.94989 0.715117 8.41 0.707575C9.24808 0.707575 10.0191 1.29332 10.2957 2.23186C10.4046 2.62655 10.4474 3.01957 10.4809 3.3975L10.5471 3.93297C10.558 4.01509 10.5681 4.09386 10.5764 4.17766L14.1659 0.58942ZM9.78068 8.87069C9.89382 8.76008 10.1469 8.68047 10.2609 8.7098C10.5685 8.78773 10.6288 9.22935 10.6238 9.57627C10.6095 10.5835 10.576 11.2841 10.5224 11.7173L10.4847 12.0743L10.484 12.0809C10.4482 12.44 10.4111 12.8116 10.3045 13.2081C10.0254 14.1449 9.27699 14.7533 8.42634 14.7533C8.39868 14.7533 8.37103 14.7533 8.34253 14.7525C7.87237 14.7525 7.36281 14.4709 7.07368 14.2254L6.04367 13.4285C5.65229 13.1377 5.76795 12.6734 5.98752 12.4045C6.1515 12.2042 8.1223 10.395 9.1574 9.4448C9.50841 9.12257 9.75181 8.89912 9.78068 8.87069Z"
                  fill="#5A5A5A"
                />
              </svg>